<svg width="40" height="40" viewBox="0 0 40 40" fill="none" xmlns="http://www.w3.org/2000/svg">
<g clip-path="url(#clip0_1_1433)">
<path d="M9.86264 25.4276C8.85825 24.5877 7.64787 24.1637 6.33449 24.337C4.97481 24.5166 3.72771 25.1865 2.6834 26.0559C1.66623 26.903 1.06424 28.0687 1.00915 29.3949C0.958846 30.6084 1.28699 31.8819 1.65745 33.0292C2.07821 34.3306 2.65226 35.5929 3.37641 36.7529C3.73649 37.3294 4.13489 37.8803 4.55805 38.412C5.00036 38.9669 5.40915 39.4859 6.09018 39.7398C6.20436 39.7821 6.31933 39.7677 6.41833 39.7182C6.49897 39.7837 6.58998 39.8388 6.68899 39.8787C7.16004 40.0687 7.84428 39.9338 8.07901 39.4228C8.34487 38.8456 8.67222 38.2891 8.96124 37.7214C9.25426 37.1474 9.56883 36.5853 9.87781 36.02C10.5245 34.836 11.1337 33.612 11.4922 32.305C12.1453 29.9266 11.8658 27.1034 9.86184 25.4276H9.86264ZM9.41713 30.016C9.40036 30.5861 9.30775 31.042 9.12571 31.6519C8.78479 32.7953 8.24348 33.7893 7.65585 34.8855C7.36284 35.4324 7.06583 35.9777 6.79038 36.5342C6.52052 37.0795 6.32252 37.62 6.15246 38.1901C6.05984 38.0695 5.96244 37.9481 5.86344 37.8212C5.53929 37.4036 5.24068 36.9645 4.96284 36.515C4.41753 35.6344 3.94647 34.7018 3.58559 33.7302C3.2311 32.7769 2.94447 31.7773 2.79996 30.7697C2.66823 29.8484 2.75126 28.8216 3.42192 28.1222C4.05825 27.4587 5.04907 26.9909 5.94088 26.7186C6.10695 26.6683 6.36324 26.5996 6.48539 26.5813C6.62511 26.5605 6.77362 26.5589 6.91493 26.5613C6.92372 26.5613 7.23909 26.5989 7.19358 26.5845C7.27741 26.602 7.36124 26.6212 7.44348 26.646C7.45545 26.6491 7.64707 26.7202 7.65106 26.717C7.80515 26.7897 7.95206 26.8783 8.09338 26.9733C8.05585 26.9509 8.25146 27.0971 8.26104 27.1066C8.34408 27.1809 8.42392 27.2591 8.50056 27.3406C8.56124 27.4044 8.61952 27.4707 8.67621 27.5394C8.67861 27.5482 8.80236 27.719 8.80555 27.7246C8.91014 27.8843 8.99477 28.0527 9.08739 28.2196C9.10416 28.2492 9.11693 28.2715 9.12651 28.2875C9.1321 28.305 9.14008 28.3266 9.15046 28.3553C9.20236 28.4983 9.25106 28.642 9.29098 28.7881C9.32052 28.8983 9.34208 29.0092 9.36843 29.1194C9.37721 29.1569 9.3836 29.1825 9.38919 29.2C9.38998 29.2248 9.39238 29.2591 9.39557 29.307C9.41394 29.5426 9.42272 29.7781 9.41633 30.0152L9.41713 30.016Z" fill="#F8F9FA"/>
<path d="M7.64471 30.6627C7.62714 30.5302 7.60958 30.3984 7.59122 30.2659C7.52016 30.0136 7.39241 29.7941 7.20798 29.608C7.16008 29.5505 7.13134 29.5434 7.04191 29.4747C6.9477 29.3813 6.83593 29.3158 6.70818 29.2799C6.6475 29.24 6.58283 29.2136 6.51417 29.2008C6.38004 29.1825 6.24591 29.1649 6.11098 29.1466H6.09661C6.08223 29.1466 6.06866 29.1466 6.05429 29.1466C5.84591 29.1386 5.6511 29.1825 5.47066 29.2775C5.28303 29.339 5.12016 29.4428 4.98283 29.5913C4.83513 29.7286 4.73054 29.8915 4.66906 30.0791C4.57405 30.2595 4.53094 30.4543 4.53812 30.6627C4.55649 30.7968 4.57405 30.931 4.59241 31.0659C4.66427 31.323 4.79441 31.5458 4.98204 31.735L5.28862 31.9721C5.52495 32.1094 5.78044 32.1781 6.05349 32.1789C6.20998 32.1789 6.34411 32.1773 6.51257 32.1246L6.52615 32.1222L6.88782 31.9697C7.06667 31.8755 7.11776 31.8236 7.20718 31.7182C7.35249 31.5833 7.45549 31.4228 7.51537 31.2384C7.60878 31.0603 7.65189 30.8687 7.64391 30.6635L7.64471 30.6627Z" fill="#F8F9FA"/>
<path d="M37.9972 0.298314C36.438 -0.336416 34.525 0.239232 33.4799 1.53584C32.5226 2.72386 32.4084 4.37177 32.9426 5.77057C33.2707 6.63125 33.8352 7.38175 34.4731 8.03803C34.7829 8.3566 35.1086 8.66638 35.4663 8.93145C35.7921 9.17256 36.1106 9.4576 36.5082 9.53744C36.7182 9.6564 37 9.6564 37.2252 9.5542C37.6787 9.34821 37.8551 8.82366 38.0667 8.4045C38.2887 7.96698 38.5194 7.53424 38.7509 7.10151C39.1813 6.29512 39.6292 5.46558 39.8424 4.56977C40.236 2.91388 39.6803 0.983344 37.9972 0.298314ZM38.0803 4.38294C37.8879 5.14462 37.5278 5.84402 37.1901 6.54821C37 6.94422 36.806 7.33863 36.6072 7.73065C36.533 7.87755 36.4563 8.01728 36.3901 8.1562C36.2072 7.96777 36.0244 7.78175 35.836 7.59811C35.3793 7.15261 34.9505 6.67835 34.6144 6.13304C34.042 5.2053 33.7018 3.97576 34.1673 2.92905C34.4004 2.4053 34.8731 2.06119 35.412 1.9055C35.9549 1.74901 36.5705 1.64921 37.1238 1.80091C38.2392 2.1075 38.3174 3.44243 38.0803 4.38135V4.38294Z" fill="#F8F9FA"/>
<path d="M36.7254 3.8129C36.6942 3.70192 36.6383 3.60532 36.5569 3.52388L36.4244 3.42168C36.3222 3.3626 36.212 3.33226 36.0938 3.33226C36.0036 3.32907 35.9198 3.34743 35.8415 3.38895C35.7601 3.4153 35.6898 3.46081 35.6307 3.52468C35.5669 3.58376 35.5214 3.65402 35.495 3.73546C35.4543 3.8137 35.4351 3.89753 35.4383 3.98775C35.4463 4.04604 35.4543 4.10352 35.4615 4.1618C35.4926 4.27278 35.5485 4.36939 35.6299 4.45083L35.7625 4.55302C35.8647 4.6121 35.9749 4.64244 36.093 4.64244C36.1832 4.64564 36.2671 4.62727 36.3453 4.58576C36.4268 4.55941 36.497 4.5139 36.5561 4.45003C36.62 4.39095 36.6655 4.32069 36.6918 4.23925C36.7325 4.16101 36.7517 4.07717 36.7485 3.98695C36.7405 3.92867 36.7325 3.87119 36.7254 3.8129Z" fill="#F8F9FA"/>
<path d="M34.2197 22.0497C33.6025 19.4037 31.1658 17.8948 28.7378 17.1355C26.0536 16.2964 23.2025 16.1127 20.4097 15.9954C17.7023 15.882 14.9606 15.8716 12.3586 15.2696C11.7359 15.1251 11.1091 14.9383 10.5933 14.6732C10.0273 14.3818 9.73905 14.179 9.34304 13.7511C9.03485 13.4181 8.82408 13.062 8.70751 12.5966C8.65481 12.3866 8.63645 12.2341 8.64364 11.9403C8.65002 11.6824 8.68356 11.4796 8.77937 11.1562C9.42208 8.9782 12.0185 7.69756 14.0281 6.82491C16.2652 5.85405 18.6564 5.35984 21.0564 5.24726C23.5323 5.13069 25.937 5.34946 28.2979 5.96263C28.9007 6.11912 29.5187 6.20774 30.1295 6.3283C30.9941 6.49916 31.5722 5.33988 30.7498 4.85764C28.5047 3.54267 25.763 3.08279 23.1889 3.01493C20.6165 2.94786 18.0744 3.35904 15.6097 4.0776C13.1626 4.79137 10.6061 5.8796 8.67078 7.57461C6.64044 9.35185 5.57138 12.4425 7.28316 14.8105C8.99653 17.1802 11.9826 17.7016 14.7027 18.0337C17.482 18.373 20.2883 18.3602 23.0748 18.6149C24.4161 18.7371 25.6616 18.9159 27.0285 19.2696C27.6368 19.4269 28.2341 19.6153 28.8201 19.8405C28.8408 19.8485 28.8544 19.8532 28.864 19.8572C28.9191 19.8812 28.9742 19.9059 29.0285 19.9307C29.1594 19.9906 29.2887 20.0536 29.4165 20.1199C29.6887 20.2604 29.953 20.4145 30.2069 20.587C30.2428 20.6117 30.381 20.7115 30.3897 20.7155C30.4816 20.7898 30.5718 20.8672 30.6588 20.9471C30.7618 21.0421 30.8616 21.1403 30.9566 21.2425C31.0053 21.2944 31.1889 21.5315 31.1642 21.4892C31.3023 21.6896 31.4269 21.898 31.5307 22.1175C31.5283 22.1207 31.5929 22.282 31.6073 22.3283C31.6576 22.4824 31.6983 22.6397 31.7319 22.7986C31.7446 22.86 31.755 22.9215 31.7654 22.9838C31.7654 22.9878 31.7654 22.991 31.7654 22.9958C31.767 23.1379 31.7854 23.2808 31.7862 23.4237C31.7869 23.5674 31.7814 23.7103 31.771 23.854C31.7686 23.8884 31.7646 23.9227 31.7614 23.957C31.7582 23.977 31.747 24.0624 31.7366 24.1191C31.6864 24.3834 31.6185 24.6445 31.5323 24.9C31.5059 24.9782 31.4772 25.0556 31.4476 25.1331C31.3838 25.2752 31.3135 25.4149 31.2376 25.5515C31.1674 25.6784 31.0931 25.8022 31.0133 25.9235C30.9806 25.973 30.856 26.1455 30.8249 26.1902C30.8017 26.2173 30.7722 26.2532 30.7706 26.2556C30.7155 26.3187 30.662 26.3818 30.6053 26.4441C30.5071 26.5519 30.4049 26.6564 30.2995 26.7578C30.1941 26.8592 30.0863 26.9574 29.9754 27.0532C29.9195 27.1012 29.862 27.1483 29.8053 27.1946C29.8053 27.1946 29.8045 27.1946 29.8037 27.1962C29.5498 27.3822 29.2863 27.5554 29.0133 27.7119C28.7754 27.8485 28.5311 27.9746 28.282 28.0896C28.2652 28.0976 28.1869 28.1327 28.1414 28.1534C28.1127 28.1654 28.0832 28.1782 28.0792 28.1798C27.9211 28.2413 27.763 28.3004 27.6033 28.3554C26.9885 28.567 26.3554 28.7203 25.7159 28.8337C25.5418 28.8648 25.367 28.8928 25.1913 28.9175C25.185 28.9183 25.181 28.9191 25.1754 28.9199C25.1634 28.9207 25.1418 28.9231 25.1059 28.9271C25.0309 28.9359 24.955 28.9447 24.88 28.9527C24.5023 28.9926 24.1231 29.0221 23.7438 29.0437C23.0341 29.0844 22.3235 29.098 21.6129 29.1059C20.183 29.1211 18.749 29.1107 17.3239 29.2433C17.4365 29.1507 17.5466 29.062 17.6528 28.9814C18.1526 28.599 18.674 28.27 19.1347 27.8389C19.8476 27.1714 19.1091 25.9131 18.179 26.1966C16.8424 26.6045 15.573 27.5858 14.5223 28.4864C13.4404 29.4133 12.1454 30.6125 12.5382 32.1982C12.7378 33.0053 13.3558 33.5858 14.1343 33.8357C14.7482 34.0329 15.4245 34.0113 16.06 34.0888C16.0153 34.0848 16.4049 34.1423 16.456 34.1511C16.5989 34.1758 16.7418 34.203 16.8848 34.2317C17.2177 34.2988 17.5474 34.3778 17.8748 34.4672C18.5766 34.6596 19.2528 34.9231 19.9506 35.1259C21.3311 35.5275 22.1917 33.5131 20.9311 32.801C20.2987 32.4441 19.6097 32.187 18.9031 31.9938C19.1722 31.9802 19.442 31.969 19.7111 31.9602C21.1315 31.9131 22.555 31.9147 23.973 31.7998C26.7738 31.573 29.5179 30.8888 31.7167 29.058C33.7327 27.379 34.8273 24.6437 34.2221 22.0513L34.2197 22.0497Z" fill="#F8F9FA"/>
</g>
<defs>
<clipPath id="clip0_1_1433">
<rect width="40" height="40" fill="white"/>
</clipPath>
</defs>
</svg>
